<?xml version="1.0"?>
<svg xmlns="http://www.w3.org/2000/svg" height="512px" version="1.1" viewBox="-21 1 511 511.99999" width="512px" class=""><g><g id="surface1">
<path d="M 179.785156 452.265625 L 137.121094 452.265625 L 137.121094 392.535156 L 120.054688 392.535156 L 120.054688 452.265625 L 77.386719 452.265625 L 77.386719 469.332031 L 120.054688 469.332031 L 120.054688 512 L 137.121094 512 L 137.121094 469.332031 L 179.785156 469.332031 Z M 179.785156 452.265625 " style="fill:#D0353D" data-original="#FF3051" class="" data-old_color="#d0353d"/>
<path d="M 461.386719 0 L 401.652344 0 L 401.652344 17.066406 L 440.785156 17.066406 L 375.199219 82.660156 L 387.257812 94.71875 L 452.851562 29.132812 L 452.851562 68.265625 L 469.917969 68.265625 L 469.917969 8.535156 C 469.921875 3.820312 466.101562 0 461.386719 0 Z M 461.386719 0 " style="fill:#412D3C" data-original="#006DF0" class="" data-old_color="#412d3c"/>
<path d="M 171.253906 170.667969 C 171.296875 164.753906 171.75 158.851562 172.609375 153.003906 C 106.273438 128.636719 32.746094 162.660156 8.382812 228.992188 C -15.984375 295.328125 18.039062 368.855469 84.371094 393.222656 C 150.707031 417.589844 224.234375 383.566406 248.601562 317.230469 C 251.75 308.660156 253.972656 299.773438 255.230469 290.730469 C 204.824219 272.289062 171.289062 224.339844 171.253906 170.667969 Z M 171.253906 170.667969 " style="fill:#D0353D" data-original="#FF3051" class="" data-old_color="#d0353d"/>
<path d="M 172.609375 153.003906 C 229.46875 173.335938 264.054688 230.992188 255.230469 290.730469 C 321.566406 315.097656 395.09375 281.074219 419.460938 214.738281 C 443.824219 148.402344 409.804688 74.875 343.46875 50.507812 C 277.132812 26.144531 203.605469 60.167969 179.238281 126.5 C 176.089844 135.074219 173.867188 143.957031 172.609375 153.003906 Z M 172.609375 153.003906 " style="fill:#412D3C" data-original="#006DF0" class="" data-old_color="#412d3c"/>
<path d="M 172.609375 153.003906 C 163.785156 212.738281 198.371094 270.394531 255.230469 290.730469 C 264.054688 230.992188 229.46875 173.335938 172.609375 153.003906 Z M 172.609375 153.003906 " style="fill:#F2F0F0" data-original="#E34965" class="active-path" data-old_color="#EEEBEB"/>
</g></g> </svg>
